<svg width="853" height="207" viewBox="0 0 853 207" fill="none" xmlns="http://www.w3.org/2000/svg">
<path d="M8.73515 119.58L49.3018 143.617C51.1292 144.7 53.4081 144.697 55.2328 143.61L101.287 116.17C103.111 115.083 105.39 115.08 107.218 116.163L153.703 143.707C155.45 144.741 156.52 146.612 156.52 148.632L156.52 197.503C156.52 201.955 151.634 204.709 147.784 202.428L107.218 178.391C105.39 177.309 103.112 177.311 101.287 178.399L55.2328 205.838C53.4081 206.925 51.1292 206.928 49.3018 205.845L2.81624 178.302C1.06973 177.267 7.36694e-05 175.396 7.37576e-05 173.376L7.58939e-05 124.505C7.60885e-05 120.053 4.88533 117.299 8.73515 119.58Z" fill="#37BD6B"/>
<path d="M182.646 119.58L223.213 143.617C225.04 144.7 227.319 144.697 229.144 143.61L275.198 116.17C277.023 115.083 279.302 115.08 281.129 116.163L327.614 143.707C329.361 144.741 330.431 146.612 330.431 148.632L330.431 197.503C330.431 201.955 325.545 204.709 321.696 202.428L281.129 178.391C279.302 177.309 277.023 177.311 275.198 178.399L229.144 205.838C227.319 206.925 225.04 206.928 223.213 205.845L176.727 178.302C174.981 177.267 173.911 175.396 173.911 173.376L173.911 124.505C173.911 120.053 178.796 117.299 182.646 119.58Z" fill="#37BD6B"/>
<path d="M356.556 119.58L397.123 143.617C398.95 144.7 401.229 144.697 403.054 143.61L449.108 116.17C450.933 115.083 453.212 115.08 455.039 116.163L501.525 143.707C503.271 144.741 504.341 146.612 504.341 148.632L504.341 197.503C504.341 201.955 499.456 204.709 495.606 202.428L455.039 178.391C453.212 177.309 450.933 177.311 449.108 178.399L403.054 205.838C401.229 206.925 398.95 206.928 397.123 205.845L350.638 178.302C348.891 177.267 347.821 175.396 347.821 173.376L347.821 124.505C347.821 120.053 352.707 117.299 356.556 119.58Z" fill="#37BD6B"/>
<path d="M531.192 119.58L571.759 143.617C573.586 144.7 575.865 144.697 577.69 143.61L623.744 116.17C625.569 115.083 627.847 115.08 629.675 116.163L676.16 143.707C677.907 144.741 678.977 146.612 678.977 148.632L678.977 197.503C678.977 201.955 674.091 204.709 670.241 202.428L629.675 178.391C627.847 177.309 625.569 177.311 623.744 178.399L577.69 205.838C575.865 206.925 573.586 206.928 571.759 205.845L525.273 178.302C523.527 177.267 522.457 175.396 522.457 173.376L522.457 124.505C522.457 120.053 527.342 117.299 531.192 119.58Z" fill="#37BD6B"/>
<path d="M705.102 119.58L745.669 143.617C747.496 144.7 749.775 144.697 751.6 143.61L797.654 116.17C799.479 115.083 801.758 115.08 803.585 116.163L850.071 143.707C851.817 144.741 852.887 146.612 852.887 148.632L852.887 197.503C852.887 201.955 848.001 204.709 844.152 202.428L803.585 178.391C801.758 177.309 799.479 177.311 797.654 178.399L751.6 205.838C749.775 206.925 747.496 206.928 745.669 205.845L699.183 178.302C697.437 177.267 696.367 175.396 696.367 173.376L696.367 124.505C696.367 120.053 701.253 117.299 705.102 119.58Z" fill="#37BD6B"/>
<path d="M8.73515 5.08878L49.3018 29.1256C51.1292 30.2084 53.4081 30.2056 55.2328 29.1184L101.287 1.67865C103.111 0.591461 105.39 0.588711 107.218 1.67147L153.703 29.2154C155.45 30.2502 156.52 32.1209 156.52 34.1405L156.52 83.0117C156.52 87.4635 151.634 90.218 147.784 87.9369L107.218 63.9002C105.39 62.8174 103.112 62.8201 101.287 63.9073L55.2328 91.347C53.4081 92.4342 51.1292 92.437 49.3018 91.3542L2.81624 63.8104C1.06973 62.7755 6.91394e-05 60.9047 6.92277e-05 58.8851L7.13639e-05 10.014C7.15585e-05 5.56221 4.88533 2.80767 8.73515 5.08878Z" fill="#37BD6B"/>
<path d="M182.646 5.08878L223.213 29.1256C225.04 30.2084 227.319 30.2056 229.144 29.1184L275.198 1.67865C277.023 0.591461 279.302 0.588711 281.129 1.67147L327.614 29.2154C329.361 30.2502 330.431 32.1209 330.431 34.1405L330.431 83.0117C330.431 87.4635 325.545 90.218 321.696 87.9369L281.129 63.9002C279.302 62.8174 277.023 62.8201 275.198 63.9073L229.144 91.347C227.319 92.4342 225.04 92.437 223.213 91.3542L176.727 63.8104C174.981 62.7755 173.911 60.9047 173.911 58.8851L173.911 10.014C173.911 5.56221 178.796 2.80767 182.646 5.08878Z" fill="#37BD6B"/>
<path d="M356.556 5.08878L397.123 29.1256C398.95 30.2084 401.229 30.2056 403.054 29.1184L449.108 1.67865C450.933 0.591461 453.212 0.588711 455.039 1.67147L501.525 29.2154C503.271 30.2502 504.341 32.1209 504.341 34.1405L504.341 83.0117C504.341 87.4635 499.456 90.218 495.606 87.9369L455.039 63.9002C453.212 62.8174 450.933 62.8201 449.108 63.9073L403.054 91.347C401.229 92.4342 398.95 92.437 397.123 91.3542L350.638 63.8104C348.891 62.7755 347.821 60.9047 347.821 58.8851L347.821 10.014C347.821 5.56221 352.707 2.80767 356.556 5.08878Z" fill="#37BD6B"/>
<path d="M531.192 5.08878L571.759 29.1256C573.586 30.2084 575.865 30.2056 577.69 29.1184L623.744 1.67865C625.569 0.591461 627.847 0.588711 629.675 1.67147L676.16 29.2154C677.907 30.2502 678.977 32.1209 678.977 34.1405L678.977 83.0117C678.977 87.4635 674.091 90.218 670.241 87.9369L629.675 63.9002C627.847 62.8174 625.569 62.8201 623.744 63.9073L577.69 91.347C575.865 92.4342 573.586 92.437 571.759 91.3542L525.273 63.8104C523.527 62.7755 522.457 60.9047 522.457 58.8851L522.457 10.014C522.457 5.56221 527.342 2.80767 531.192 5.08878Z" fill="#37BD6B"/>
<path d="M705.102 5.08878L745.669 29.1256C747.496 30.2084 749.775 30.2056 751.6 29.1184L797.654 1.67865C799.479 0.591461 801.758 0.588711 803.585 1.67147L850.071 29.2154C851.817 30.2502 852.887 32.1209 852.887 34.1405L852.887 83.0117C852.887 87.4635 848.001 90.218 844.152 87.9369L803.585 63.9002C801.758 62.8174 799.479 62.8201 797.654 63.9073L751.6 91.347C749.775 92.4342 747.496 92.437 745.669 91.3542L699.183 63.8104C697.437 62.7755 696.367 60.9047 696.367 58.8851L696.367 10.014C696.367 5.56221 701.253 2.80767 705.102 5.08878Z" fill="#37BD6B"/>
</svg>
