<svg width="54" height="31" viewBox="0 0 54 31" fill="none" xmlns="http://www.w3.org/2000/svg">
<path d="M3.48383 1.7068L17.2051 9.77622C17.8232 10.1397 18.5941 10.1387 19.2112 9.77381L34.7885 0.561981C35.4057 0.197001 36.1765 0.196078 36.7946 0.559573L52.5179 9.80633C53.1086 10.1537 53.4705 10.7817 53.4705 11.4598V27.8663C53.4705 29.3608 51.8181 30.2855 50.5159 29.5197L36.7946 21.4504C36.1765 21.0868 35.4057 21.0878 34.7885 21.4528L19.2112 30.6646C18.5941 31.0296 17.8232 31.0305 17.2051 30.667L1.48184 21.4202C0.891097 21.0728 0.529297 20.4448 0.529297 19.7668V3.36025C0.529297 1.86573 2.18169 0.941007 3.48383 1.7068Z" fill="#37BD6B"/>
</svg>
