<svg width="211" height="207" viewBox="0 0 211 207" fill="none" xmlns="http://www.w3.org/2000/svg">
<path d="M63.312 30.4141V19.2461H68.336C68.848 19.2461 69.3067 19.3314 69.712 19.5021C70.128 19.6621 70.48 19.8967 70.768 20.2061C71.056 20.5047 71.2747 20.8674 71.424 21.2941C71.5733 21.7207 71.648 22.1901 71.648 22.7021C71.648 23.2247 71.5733 23.6994 71.424 24.1261C71.2747 24.5421 71.056 24.9047 70.768 25.2141C70.48 25.5127 70.128 25.7474 69.712 25.9181C69.3067 26.0781 68.848 26.1581 68.336 26.1581H65.424V30.4141H63.312ZM65.424 24.3341H68.144C68.5493 24.3341 68.8693 24.2274 69.104 24.0141C69.3387 23.7901 69.456 23.4754 69.456 23.0701V22.3341C69.456 21.9287 69.3387 21.6194 69.104 21.4061C68.8693 21.1927 68.5493 21.0861 68.144 21.0861H65.424V24.3341ZM73.2778 30.4141V22.0621H75.3258V23.7901H75.4058C75.4591 23.5661 75.5391 23.3527 75.6458 23.1501C75.7631 22.9367 75.9124 22.7501 76.0938 22.5901C76.2751 22.4301 76.4884 22.3021 76.7338 22.2061C76.9898 22.1101 77.2831 22.0621 77.6138 22.0621H78.0618V23.9981H77.4218C76.7284 23.9981 76.2058 24.0994 75.8538 24.3021C75.5018 24.5047 75.3258 24.8354 75.3258 25.2941V30.4141H73.2778ZM82.7929 30.6061C82.1955 30.6061 81.6569 30.5047 81.1769 30.3021C80.7075 30.0994 80.3022 29.8061 79.9609 29.4221C79.6302 29.0381 79.3742 28.5794 79.1929 28.0461C79.0115 27.5021 78.9209 26.8941 78.9209 26.2221C78.9209 25.5501 79.0115 24.9474 79.1929 24.4141C79.3742 23.8807 79.6302 23.4274 79.9609 23.0541C80.3022 22.6701 80.7075 22.3767 81.1769 22.1741C81.6569 21.9714 82.1955 21.8701 82.7929 21.8701C83.3902 21.8701 83.9289 21.9714 84.4089 22.1741C84.8889 22.3767 85.2942 22.6701 85.6249 23.0541C85.9662 23.4274 86.2275 23.8807 86.4089 24.4141C86.5902 24.9474 86.6809 25.5501 86.6809 26.2221C86.6809 26.8941 86.5902 27.5021 86.4089 28.0461C86.2275 28.5794 85.9662 29.0381 85.6249 29.4221C85.2942 29.8061 84.8889 30.0994 84.4089 30.3021C83.9289 30.5047 83.3902 30.6061 82.7929 30.6061ZM82.7929 28.9581C83.3369 28.9581 83.7635 28.7927 84.0729 28.4621C84.3822 28.1314 84.5369 27.6461 84.5369 27.0061V25.4541C84.5369 24.8247 84.3822 24.3447 84.0729 24.0141C83.7635 23.6834 83.3369 23.5181 82.7929 23.5181C82.2595 23.5181 81.8382 23.6834 81.5289 24.0141C81.2195 24.3447 81.0649 24.8247 81.0649 25.4541V27.0061C81.0649 27.6461 81.2195 28.1314 81.5289 28.4621C81.8382 28.7927 82.2595 28.9581 82.7929 28.9581ZM88.8188 23.6781H87.5868V22.0621H88.8188V20.8621C88.8188 20.1261 89.0108 19.5607 89.3948 19.1661C89.7894 18.7714 90.3654 18.5741 91.1228 18.5741H92.5788V20.2061H90.8668V22.0621H96.0188V30.4141H93.9708V23.6781H90.8668V30.4141H88.8188V23.6781ZM94.9948 20.8461C94.5681 20.8461 94.2588 20.7501 94.0668 20.5581C93.8854 20.3661 93.7948 20.1207 93.7948 19.8221V19.5021C93.7948 19.2034 93.8854 18.9581 94.0668 18.7661C94.2588 18.5741 94.5681 18.4781 94.9948 18.4781C95.4108 18.4781 95.7148 18.5741 95.9068 18.7661C96.0988 18.9581 96.1948 19.2034 96.1948 19.5021V19.8221C96.1948 20.1207 96.0988 20.3661 95.9068 20.5581C95.7148 20.7501 95.4108 20.8461 94.9948 20.8461ZM100.435 30.4141C99.7311 30.4141 99.2138 30.2381 98.8831 29.8861C98.5525 29.5341 98.3871 29.0381 98.3871 28.3981V18.5741H100.435V28.7821H101.539V30.4141H100.435ZM106.466 30.6061C105.848 30.6061 105.293 30.5047 104.802 30.3021C104.322 30.0887 103.912 29.7954 103.57 29.4221C103.24 29.0381 102.984 28.5794 102.802 28.0461C102.621 27.5021 102.53 26.8941 102.53 26.2221C102.53 25.5607 102.616 24.9634 102.786 24.4301C102.968 23.8967 103.224 23.4434 103.554 23.0701C103.885 22.6861 104.29 22.3927 104.77 22.1901C105.25 21.9767 105.794 21.8701 106.402 21.8701C107.053 21.8701 107.618 21.9821 108.098 22.2061C108.578 22.4301 108.973 22.7341 109.282 23.1181C109.592 23.5021 109.821 23.9501 109.97 24.4621C110.13 24.9634 110.21 25.5021 110.21 26.0781V26.7501H104.658V26.9581C104.658 27.5661 104.829 28.0567 105.17 28.4301C105.512 28.7927 106.018 28.9741 106.69 28.9741C107.202 28.9741 107.618 28.8674 107.938 28.6541C108.269 28.4407 108.562 28.1687 108.818 27.8381L109.922 29.0701C109.581 29.5501 109.112 29.9287 108.514 30.2061C107.928 30.4727 107.245 30.6061 106.466 30.6061ZM106.434 23.4061C105.89 23.4061 105.458 23.5874 105.138 23.9501C104.818 24.3127 104.658 24.7821 104.658 25.3581V25.4861H108.082V25.3421C108.082 24.7661 107.938 24.3021 107.65 23.9501C107.373 23.5874 106.968 23.4061 106.434 23.4061ZM119.393 30.6061C118.433 30.6061 117.617 30.4354 116.945 30.0941C116.284 29.7527 115.713 29.3047 115.233 28.7501L116.657 27.3741C117.041 27.8221 117.468 28.1634 117.937 28.3981C118.417 28.6327 118.945 28.7501 119.521 28.7501C120.172 28.7501 120.663 28.6114 120.993 28.3341C121.324 28.0461 121.489 27.6621 121.489 27.1821C121.489 26.8087 121.383 26.5047 121.169 26.2701C120.956 26.0354 120.556 25.8647 119.969 25.7581L118.913 25.5981C116.684 25.2461 115.569 24.1634 115.569 22.3501C115.569 21.8487 115.66 21.3954 115.841 20.9901C116.033 20.5847 116.305 20.2381 116.657 19.9501C117.009 19.6621 117.431 19.4434 117.921 19.2941C118.423 19.1341 118.988 19.0541 119.617 19.0541C120.46 19.0541 121.196 19.1927 121.825 19.4701C122.455 19.7474 122.993 20.1581 123.441 20.7021L122.001 22.0621C121.724 21.7207 121.388 21.4434 120.993 21.2301C120.599 21.0167 120.103 20.9101 119.505 20.9101C118.897 20.9101 118.439 21.0274 118.129 21.2621C117.831 21.4861 117.681 21.8061 117.681 22.2221C117.681 22.6487 117.804 22.9634 118.049 23.1661C118.295 23.3687 118.689 23.5181 119.233 23.6141L120.273 23.8061C121.404 24.0087 122.236 24.3714 122.769 24.8941C123.313 25.4061 123.585 26.1261 123.585 27.0541C123.585 27.5874 123.489 28.0727 123.297 28.5101C123.116 28.9367 122.844 29.3101 122.481 29.6301C122.129 29.9394 121.692 30.1794 121.169 30.3501C120.657 30.5207 120.065 30.6061 119.393 30.6061ZM128.871 30.6061C128.252 30.6061 127.703 30.5047 127.223 30.3021C126.743 30.0994 126.337 29.8061 126.007 29.4221C125.687 29.0381 125.441 28.5794 125.271 28.0461C125.1 27.5021 125.015 26.8941 125.015 26.2221C125.015 25.5501 125.1 24.9474 125.271 24.4141C125.441 23.8807 125.687 23.4274 126.007 23.0541C126.337 22.6701 126.743 22.3767 127.223 22.1741C127.703 21.9714 128.252 21.8701 128.871 21.8701C129.713 21.8701 130.407 22.0567 130.951 22.4301C131.505 22.8034 131.905 23.3207 132.151 23.9821L130.471 24.7341C130.375 24.3821 130.193 24.0941 129.927 23.8701C129.671 23.6354 129.319 23.5181 128.871 23.5181C128.295 23.5181 127.863 23.6994 127.575 24.0621C127.297 24.4247 127.159 24.8994 127.159 25.4861V27.0061C127.159 27.5927 127.297 28.0674 127.575 28.4301C127.863 28.7821 128.295 28.9581 128.871 28.9581C129.361 28.9581 129.74 28.8354 130.007 28.5901C130.273 28.3341 130.481 28.0194 130.631 27.6461L132.199 28.3981C131.921 29.1341 131.5 29.6887 130.935 30.0621C130.369 30.4247 129.681 30.6061 128.871 30.6061ZM133.778 30.4141V22.0621H135.826V23.7901H135.906C135.959 23.5661 136.039 23.3527 136.146 23.1501C136.263 22.9367 136.412 22.7501 136.594 22.5901C136.775 22.4301 136.988 22.3021 137.234 22.2061C137.49 22.1101 137.783 22.0621 138.114 22.0621H138.562V23.9981H137.922C137.228 23.9981 136.706 24.0994 136.354 24.3021C136.002 24.5047 135.826 24.8354 135.826 25.2941V30.4141H133.778ZM143.357 30.6061C142.738 30.6061 142.184 30.5047 141.693 30.3021C141.213 30.0887 140.802 29.7954 140.461 29.4221C140.13 29.0381 139.874 28.5794 139.693 28.0461C139.512 27.5021 139.421 26.8941 139.421 26.2221C139.421 25.5607 139.506 24.9634 139.677 24.4301C139.858 23.8967 140.114 23.4434 140.445 23.0701C140.776 22.6861 141.181 22.3927 141.661 22.1901C142.141 21.9767 142.685 21.8701 143.293 21.8701C143.944 21.8701 144.509 21.9821 144.989 22.2061C145.469 22.4301 145.864 22.7341 146.173 23.1181C146.482 23.5021 146.712 23.9501 146.861 24.4621C147.021 24.9634 147.101 25.5021 147.101 26.0781V26.7501H141.549V26.9581C141.549 27.5661 141.72 28.0567 142.061 28.4301C142.402 28.7927 142.909 28.9741 143.581 28.9741C144.093 28.9741 144.509 28.8674 144.829 28.6541C145.16 28.4407 145.453 28.1687 145.709 27.8381L146.813 29.0701C146.472 29.5501 146.002 29.9287 145.405 30.2061C144.818 30.4727 144.136 30.6061 143.357 30.6061ZM143.325 23.4061C142.781 23.4061 142.349 23.5874 142.029 23.9501C141.709 24.3127 141.549 24.7821 141.549 25.3581V25.4861H144.973V25.3421C144.973 24.7661 144.829 24.3021 144.541 23.9501C144.264 23.5874 143.858 23.4061 143.325 23.4061ZM152.279 30.6061C151.66 30.6061 151.105 30.5047 150.615 30.3021C150.135 30.0887 149.724 29.7954 149.383 29.4221C149.052 29.0381 148.796 28.5794 148.615 28.0461C148.433 27.5021 148.343 26.8941 148.343 26.2221C148.343 25.5607 148.428 24.9634 148.599 24.4301C148.78 23.8967 149.036 23.4434 149.367 23.0701C149.697 22.6861 150.103 22.3927 150.583 22.1901C151.063 21.9767 151.607 21.8701 152.215 21.8701C152.865 21.8701 153.431 21.9821 153.911 22.2061C154.391 22.4301 154.785 22.7341 155.095 23.1181C155.404 23.5021 155.633 23.9501 155.783 24.4621C155.943 24.9634 156.023 25.5021 156.023 26.0781V26.7501H150.471V26.9581C150.471 27.5661 150.641 28.0567 150.983 28.4301C151.324 28.7927 151.831 28.9741 152.503 28.9741C153.015 28.9741 153.431 28.8674 153.751 28.6541C154.081 28.4407 154.375 28.1687 154.631 27.8381L155.735 29.0701C155.393 29.5501 154.924 29.9287 154.327 30.2061C153.74 30.4727 153.057 30.6061 152.279 30.6061ZM152.247 23.4061C151.703 23.4061 151.271 23.5874 150.951 23.9501C150.631 24.3127 150.471 24.7821 150.471 25.3581V25.4861H153.895V25.3421C153.895 24.7661 153.751 24.3021 153.463 23.9501C153.185 23.5874 152.78 23.4061 152.247 23.4061ZM157.825 30.4141V22.0621H159.873V23.4541H159.953C160.123 23.0061 160.39 22.6327 160.753 22.3341C161.126 22.0247 161.638 21.8701 162.289 21.8701C163.153 21.8701 163.814 22.1527 164.273 22.7181C164.731 23.2834 164.961 24.0887 164.961 25.1341V30.4141H162.913V25.3421C162.913 24.7447 162.806 24.2967 162.593 23.9981C162.379 23.6994 162.027 23.5501 161.537 23.5501C161.323 23.5501 161.115 23.5821 160.913 23.6461C160.721 23.6994 160.545 23.7847 160.385 23.9021C160.235 24.0087 160.113 24.1474 160.017 24.3181C159.921 24.4781 159.873 24.6701 159.873 24.8941V30.4141H157.825Z" fill="#37BD6B"/>
<ellipse cx="25" cy="25.4092" rx="25" ry="24.9785" fill="#37BD6B"/>
<path d="M25.0001 26.5407C28.0772 26.5407 30.5716 24.0495 30.5716 20.9764C30.5716 17.9033 28.0772 15.4121 25.0001 15.4121C21.9231 15.4121 19.4287 17.9033 19.4287 20.9764C19.4287 24.0495 21.9231 26.5407 25.0001 26.5407Z" stroke="white" stroke-width="1.5" stroke-linecap="round" stroke-linejoin="round"/>
<path d="M16 35.1015C16 30.8213 19.4286 26.541 25 26.541C30.5714 26.541 34 30.8213 34 35.1015" stroke="white" stroke-width="1.5" stroke-linecap="round" stroke-linejoin="round"/>
<path d="M66.784 108.506C65.824 108.506 65.008 108.336 64.336 107.994C63.6747 107.653 63.104 107.205 62.624 106.65L64.048 105.274C64.432 105.722 64.8587 106.064 65.328 106.298C65.808 106.533 66.336 106.65 66.912 106.65C67.5627 106.65 68.0533 106.512 68.384 106.234C68.7147 105.946 68.88 105.562 68.88 105.082C68.88 104.709 68.7733 104.405 68.56 104.17C68.3467 103.936 67.9467 103.765 67.36 103.658L66.304 103.498C64.0747 103.146 62.96 102.064 62.96 100.25C62.96 99.7491 63.0507 99.2958 63.232 98.8905C63.424 98.4851 63.696 98.1385 64.048 97.8505C64.4 97.5625 64.8213 97.3438 65.312 97.1945C65.8133 97.0345 66.3787 96.9545 67.008 96.9545C67.8507 96.9545 68.5867 97.0931 69.216 97.3705C69.8453 97.6478 70.384 98.0585 70.832 98.6025L69.392 99.9625C69.1147 99.6211 68.7787 99.3438 68.384 99.1305C67.9893 98.9171 67.4933 98.8105 66.896 98.8105C66.288 98.8105 65.8293 98.9278 65.52 99.1625C65.2213 99.3865 65.072 99.7065 65.072 100.122C65.072 100.549 65.1947 100.864 65.44 101.066C65.6853 101.269 66.08 101.418 66.624 101.514L67.664 101.706C68.7947 101.909 69.6267 102.272 70.16 102.794C70.704 103.306 70.976 104.026 70.976 104.954C70.976 105.488 70.88 105.973 70.688 106.41C70.5067 106.837 70.2347 107.21 69.872 107.53C69.52 107.84 69.0827 108.08 68.56 108.25C68.048 108.421 67.456 108.506 66.784 108.506ZM76.3413 108.506C75.7226 108.506 75.1679 108.405 74.6773 108.202C74.1973 107.989 73.7866 107.696 73.4453 107.322C73.1146 106.938 72.8586 106.48 72.6773 105.946C72.4959 105.402 72.4053 104.794 72.4053 104.122C72.4053 103.461 72.4906 102.864 72.6613 102.33C72.8426 101.797 73.0986 101.344 73.4293 100.97C73.7599 100.586 74.1653 100.293 74.6453 100.09C75.1253 99.8771 75.6693 99.7705 76.2773 99.7705C76.9279 99.7705 77.4933 99.8825 77.9733 100.106C78.4533 100.33 78.8479 100.634 79.1573 101.018C79.4666 101.402 79.6959 101.85 79.8453 102.362C80.0053 102.864 80.0853 103.402 80.0853 103.978V104.65H74.5333V104.858C74.5333 105.466 74.7039 105.957 75.0453 106.33C75.3866 106.693 75.8933 106.874 76.5653 106.874C77.0773 106.874 77.4933 106.768 77.8133 106.554C78.1439 106.341 78.4373 106.069 78.6933 105.738L79.7973 106.97C79.4559 107.45 78.9866 107.829 78.3893 108.106C77.8026 108.373 77.1199 108.506 76.3413 108.506ZM76.3093 101.306C75.7653 101.306 75.3333 101.488 75.0133 101.85C74.6933 102.213 74.5333 102.682 74.5333 103.258V103.386H77.9573V103.242C77.9573 102.666 77.8133 102.202 77.5253 101.85C77.2479 101.488 76.8426 101.306 76.3093 101.306ZM88.0311 108.314C87.5831 108.314 87.2258 108.186 86.9591 107.93C86.7031 107.664 86.5431 107.312 86.4791 106.874H86.3831C86.2445 107.418 85.9618 107.829 85.5351 108.106C85.1085 108.373 84.5805 108.506 83.9511 108.506C83.0978 108.506 82.4418 108.282 81.9831 107.834C81.5245 107.386 81.2951 106.789 81.2951 106.042C81.2951 105.178 81.6045 104.538 82.2231 104.122C82.8418 103.696 83.7218 103.482 84.8631 103.482H86.2871V102.874C86.2871 102.405 86.1645 102.042 85.9191 101.786C85.6738 101.53 85.2791 101.402 84.7351 101.402C84.2551 101.402 83.8658 101.509 83.5671 101.722C83.2791 101.925 83.0338 102.17 82.8311 102.458L81.6151 101.37C81.9245 100.89 82.3351 100.506 82.8471 100.218C83.3591 99.9198 84.0365 99.7705 84.8791 99.7705C86.0098 99.7705 86.8685 100.026 87.4551 100.538C88.0418 101.05 88.3351 101.786 88.3351 102.746V106.682H89.1671V108.314H88.0311ZM84.6391 107.018C85.0978 107.018 85.4871 106.917 85.8071 106.714C86.1271 106.512 86.2871 106.213 86.2871 105.818V104.714H84.9751C83.9085 104.714 83.3751 105.056 83.3751 105.738V106.01C83.3751 106.352 83.4818 106.608 83.6951 106.778C83.9191 106.938 84.2338 107.018 84.6391 107.018ZM90.8246 108.314V99.9625H92.8726V101.69H92.9526C93.006 101.466 93.086 101.253 93.1926 101.05C93.31 100.837 93.4593 100.65 93.6406 100.49C93.822 100.33 94.0353 100.202 94.2806 100.106C94.5366 100.01 94.83 99.9625 95.1606 99.9625H95.6086V101.898H94.9686C94.2753 101.898 93.7526 102 93.4006 102.202C93.0486 102.405 92.8726 102.736 92.8726 103.194V108.314H90.8246ZM100.324 108.506C99.7051 108.506 99.1558 108.405 98.6758 108.202C98.1957 108 97.7904 107.706 97.4598 107.322C97.1398 106.938 96.8944 106.48 96.7238 105.946C96.5531 105.402 96.4678 104.794 96.4678 104.122C96.4678 103.45 96.5531 102.848 96.7238 102.314C96.8944 101.781 97.1398 101.328 97.4598 100.954C97.7904 100.57 98.1957 100.277 98.6758 100.074C99.1558 99.8718 99.7051 99.7705 100.324 99.7705C101.166 99.7705 101.86 99.9571 102.404 100.33C102.958 100.704 103.358 101.221 103.604 101.882L101.924 102.634C101.828 102.282 101.646 101.994 101.38 101.77C101.124 101.536 100.772 101.418 100.324 101.418C99.7478 101.418 99.3158 101.6 99.0278 101.962C98.7504 102.325 98.6118 102.8 98.6118 103.386V104.906C98.6118 105.493 98.7504 105.968 99.0278 106.33C99.3158 106.682 99.7478 106.858 100.324 106.858C100.814 106.858 101.193 106.736 101.46 106.49C101.726 106.234 101.934 105.92 102.084 105.546L103.652 106.298C103.374 107.034 102.953 107.589 102.388 107.962C101.822 108.325 101.134 108.506 100.324 108.506ZM105.231 96.4745H107.279V101.354H107.359C107.53 100.906 107.796 100.533 108.159 100.234C108.532 99.9251 109.044 99.7705 109.695 99.7705C110.559 99.7705 111.22 100.053 111.679 100.618C112.138 101.184 112.367 101.989 112.367 103.034V108.314H110.319V103.242C110.319 102.645 110.212 102.197 109.999 101.898C109.786 101.6 109.434 101.45 108.943 101.45C108.73 101.45 108.522 101.482 108.319 101.546C108.127 101.6 107.951 101.685 107.791 101.802C107.642 101.909 107.519 102.048 107.423 102.218C107.327 102.378 107.279 102.57 107.279 102.794V108.314H105.231V96.4745ZM122.018 108.506C121.058 108.506 120.242 108.336 119.57 107.994C118.909 107.653 118.338 107.205 117.858 106.65L119.282 105.274C119.666 105.722 120.093 106.064 120.562 106.298C121.042 106.533 121.57 106.65 122.146 106.65C122.797 106.65 123.288 106.512 123.618 106.234C123.949 105.946 124.114 105.562 124.114 105.082C124.114 104.709 124.008 104.405 123.794 104.17C123.581 103.936 123.181 103.765 122.594 103.658L121.538 103.498C119.309 103.146 118.194 102.064 118.194 100.25C118.194 99.7491 118.285 99.2958 118.466 98.8905C118.658 98.4851 118.93 98.1385 119.282 97.8505C119.634 97.5625 120.056 97.3438 120.546 97.1945C121.048 97.0345 121.613 96.9545 122.242 96.9545C123.085 96.9545 123.821 97.0931 124.45 97.3705C125.08 97.6478 125.618 98.0585 126.066 98.6025L124.626 99.9625C124.349 99.6211 124.013 99.3438 123.618 99.1305C123.224 98.9171 122.728 98.8105 122.13 98.8105C121.522 98.8105 121.064 98.9278 120.754 99.1625C120.456 99.3865 120.306 99.7065 120.306 100.122C120.306 100.549 120.429 100.864 120.674 101.066C120.92 101.269 121.314 101.418 121.858 101.514L122.898 101.706C124.029 101.909 124.861 102.272 125.394 102.794C125.938 103.306 126.21 104.026 126.21 104.954C126.21 105.488 126.114 105.973 125.922 106.41C125.741 106.837 125.469 107.21 125.106 107.53C124.754 107.84 124.317 108.08 123.794 108.25C123.282 108.421 122.69 108.506 122.018 108.506ZM131.496 108.506C130.877 108.506 130.328 108.405 129.848 108.202C129.368 108 128.962 107.706 128.632 107.322C128.312 106.938 128.066 106.48 127.896 105.946C127.725 105.402 127.64 104.794 127.64 104.122C127.64 103.45 127.725 102.848 127.896 102.314C128.066 101.781 128.312 101.328 128.632 100.954C128.962 100.57 129.368 100.277 129.848 100.074C130.328 99.8718 130.877 99.7705 131.496 99.7705C132.338 99.7705 133.032 99.9571 133.576 100.33C134.13 100.704 134.53 101.221 134.776 101.882L133.096 102.634C133 102.282 132.818 101.994 132.552 101.77C132.296 101.536 131.944 101.418 131.496 101.418C130.92 101.418 130.488 101.6 130.2 101.962C129.922 102.325 129.784 102.8 129.784 103.386V104.906C129.784 105.493 129.922 105.968 130.2 106.33C130.488 106.682 130.92 106.858 131.496 106.858C131.986 106.858 132.365 106.736 132.632 106.49C132.898 106.234 133.106 105.92 133.256 105.546L134.824 106.298C134.546 107.034 134.125 107.589 133.56 107.962C132.994 108.325 132.306 108.506 131.496 108.506ZM136.403 108.314V99.9625H138.451V101.69H138.531C138.584 101.466 138.664 101.253 138.771 101.05C138.888 100.837 139.037 100.65 139.219 100.49C139.4 100.33 139.613 100.202 139.859 100.106C140.115 100.01 140.408 99.9625 140.739 99.9625H141.187V101.898H140.547C139.853 101.898 139.331 102 138.979 102.202C138.627 102.405 138.451 102.736 138.451 103.194V108.314H136.403ZM145.982 108.506C145.363 108.506 144.809 108.405 144.318 108.202C143.838 107.989 143.427 107.696 143.086 107.322C142.755 106.938 142.499 106.48 142.318 105.946C142.137 105.402 142.046 104.794 142.046 104.122C142.046 103.461 142.131 102.864 142.302 102.33C142.483 101.797 142.739 101.344 143.07 100.97C143.401 100.586 143.806 100.293 144.286 100.09C144.766 99.8771 145.31 99.7705 145.918 99.7705C146.569 99.7705 147.134 99.8825 147.614 100.106C148.094 100.33 148.489 100.634 148.798 101.018C149.107 101.402 149.337 101.85 149.486 102.362C149.646 102.864 149.726 103.402 149.726 103.978V104.65H144.174V104.858C144.174 105.466 144.345 105.957 144.686 106.33C145.027 106.693 145.534 106.874 146.206 106.874C146.718 106.874 147.134 106.768 147.454 106.554C147.785 106.341 148.078 106.069 148.334 105.738L149.438 106.97C149.097 107.45 148.627 107.829 148.03 108.106C147.443 108.373 146.761 108.506 145.982 108.506ZM145.95 101.306C145.406 101.306 144.974 101.488 144.654 101.85C144.334 102.213 144.174 102.682 144.174 103.258V103.386H147.598V103.242C147.598 102.666 147.454 102.202 147.166 101.85C146.889 101.488 146.483 101.306 145.95 101.306ZM154.904 108.506C154.285 108.506 153.73 108.405 153.24 108.202C152.76 107.989 152.349 107.696 152.008 107.322C151.677 106.938 151.421 106.48 151.24 105.946C151.058 105.402 150.968 104.794 150.968 104.122C150.968 103.461 151.053 102.864 151.224 102.33C151.405 101.797 151.661 101.344 151.992 100.97C152.322 100.586 152.728 100.293 153.208 100.09C153.688 99.8771 154.232 99.7705 154.84 99.7705C155.49 99.7705 156.056 99.8825 156.536 100.106C157.016 100.33 157.41 100.634 157.72 101.018C158.029 101.402 158.258 101.85 158.408 102.362C158.568 102.864 158.648 103.402 158.648 103.978V104.65H153.096V104.858C153.096 105.466 153.266 105.957 153.608 106.33C153.949 106.693 154.456 106.874 155.128 106.874C155.64 106.874 156.056 106.768 156.376 106.554C156.706 106.341 157 106.069 157.256 105.738L158.36 106.97C158.018 107.45 157.549 107.829 156.952 108.106C156.365 108.373 155.682 108.506 154.904 108.506ZM154.872 101.306C154.328 101.306 153.896 101.488 153.576 101.85C153.256 102.213 153.096 102.682 153.096 103.258V103.386H156.52V103.242C156.52 102.666 156.376 102.202 156.088 101.85C155.81 101.488 155.405 101.306 154.872 101.306ZM160.45 108.314V99.9625H162.498V101.354H162.578C162.748 100.906 163.015 100.533 163.378 100.234C163.751 99.9251 164.263 99.7705 164.914 99.7705C165.778 99.7705 166.439 100.053 166.898 100.618C167.356 101.184 167.586 101.989 167.586 103.034V108.314H165.538V103.242C165.538 102.645 165.431 102.197 165.218 101.898C165.004 101.6 164.652 101.45 164.162 101.45C163.948 101.45 163.74 101.482 163.538 101.546C163.346 101.6 163.17 101.685 163.01 101.802C162.86 101.909 162.738 102.048 162.642 102.218C162.546 102.378 162.498 102.57 162.498 102.794V108.314H160.45Z" fill="#999999"/>
<ellipse cx="25" cy="103.31" rx="25" ry="24.9785" fill="#999999" fill-opacity="0.18"/>
<path d="M34 111.347L28.972 106.326C30.1803 104.877 30.7828 103.019 30.6542 101.138C30.5256 99.2568 29.6759 97.4977 28.2817 96.2264C26.8876 94.9551 25.0563 94.2696 23.169 94.3124C21.2816 94.3553 19.4835 95.1232 18.1486 96.4564C16.8136 97.7896 16.0448 99.5854 16.0019 101.47C15.959 103.355 16.6454 105.184 17.9183 106.577C19.1912 107.969 20.9526 108.818 22.8361 108.946C24.7195 109.074 26.58 108.473 28.0306 107.266L33.0586 112.288L34 111.347ZM17.3554 101.649C17.3554 100.465 17.7068 99.308 18.3652 98.3238C19.0236 97.3397 19.9595 96.5727 21.0544 96.1197C22.1493 95.6668 23.3541 95.5483 24.5164 95.7792C25.6788 96.0101 26.7465 96.5801 27.5845 97.417C28.4225 98.2539 28.9932 99.3202 29.2244 100.481C29.4556 101.642 29.3369 102.845 28.8834 103.939C28.4299 105.032 27.6618 105.967 26.6765 106.624C25.6911 107.282 24.5326 107.633 23.3474 107.633C21.7588 107.631 20.2357 107 19.1124 105.878C17.989 104.756 17.3571 103.235 17.3554 101.649Z" fill="#999999"/>
<path d="M67.696 176.919V186.215H65.584V176.919H62.416V175.047H70.864V176.919H67.696ZM71.7465 186.215V177.863H73.7945V179.591H73.8745C73.9278 179.367 74.0078 179.154 74.1145 178.951C74.2318 178.738 74.3812 178.551 74.5625 178.391C74.7438 178.231 74.9572 178.103 75.2025 178.007C75.4585 177.911 75.7518 177.863 76.0825 177.863H76.5305V179.799H75.8905C75.1972 179.799 74.6745 179.9 74.3225 180.103C73.9705 180.306 73.7945 180.636 73.7945 181.095V186.215H71.7465ZM83.9999 186.215C83.5519 186.215 83.1945 186.087 82.9279 185.831C82.6719 185.564 82.5119 185.212 82.4479 184.775H82.3519C82.2132 185.319 81.9305 185.73 81.5039 186.007C81.0772 186.274 80.5492 186.407 79.9199 186.407C79.0665 186.407 78.4105 186.183 77.9519 185.735C77.4932 185.287 77.2639 184.69 77.2639 183.943C77.2639 183.079 77.5732 182.439 78.1919 182.023C78.8105 181.596 79.6905 181.383 80.8319 181.383H82.2559V180.775C82.2559 180.306 82.1332 179.943 81.8879 179.687C81.6425 179.431 81.2479 179.303 80.7039 179.303C80.2239 179.303 79.8345 179.41 79.5359 179.623C79.2479 179.826 79.0025 180.071 78.7999 180.359L77.5839 179.271C77.8932 178.791 78.3039 178.407 78.8159 178.119C79.3279 177.82 80.0052 177.671 80.8479 177.671C81.9785 177.671 82.8372 177.927 83.4239 178.439C84.0105 178.951 84.3039 179.687 84.3039 180.647V184.583H85.1359V186.215H83.9999ZM80.6079 184.919C81.0665 184.919 81.4559 184.818 81.7759 184.615C82.0959 184.412 82.2559 184.114 82.2559 183.719V182.615H80.9439C79.8772 182.615 79.3439 182.956 79.3439 183.639V183.911C79.3439 184.252 79.4505 184.508 79.6639 184.679C79.8879 184.839 80.2025 184.919 80.6079 184.919ZM90.0894 186.407C89.4707 186.407 88.9214 186.306 88.4414 186.103C87.9614 185.9 87.556 185.607 87.2254 185.223C86.9054 184.839 86.66 184.38 86.4894 183.847C86.3187 183.303 86.2334 182.695 86.2334 182.023C86.2334 181.351 86.3187 180.748 86.4894 180.215C86.66 179.682 86.9054 179.228 87.2254 178.855C87.556 178.471 87.9614 178.178 88.4414 177.975C88.9214 177.772 89.4707 177.671 90.0894 177.671C90.932 177.671 91.6254 177.858 92.1694 178.231C92.724 178.604 93.124 179.122 93.3694 179.783L91.6894 180.535C91.5934 180.183 91.412 179.895 91.1454 179.671C90.8894 179.436 90.5374 179.319 90.0894 179.319C89.5134 179.319 89.0814 179.5 88.7934 179.863C88.516 180.226 88.3774 180.7 88.3774 181.287V182.807C88.3774 183.394 88.516 183.868 88.7934 184.231C89.0814 184.583 89.5134 184.759 90.0894 184.759C90.58 184.759 90.9587 184.636 91.2254 184.391C91.492 184.135 91.7 183.82 91.8494 183.447L93.4174 184.199C93.14 184.935 92.7187 185.49 92.1534 185.863C91.588 186.226 90.9 186.407 90.0894 186.407ZM94.9965 174.375H97.0445V181.511H97.1245L98.2285 180.007L100.101 177.863H102.421L99.5405 181.095L102.725 186.215H100.293L98.1485 182.471L97.0445 183.671V186.215H94.9965V174.375ZM105.005 176.647C104.578 176.647 104.269 176.551 104.077 176.359C103.896 176.167 103.805 175.922 103.805 175.623V175.303C103.805 175.004 103.896 174.759 104.077 174.567C104.269 174.375 104.578 174.279 105.005 174.279C105.421 174.279 105.725 174.375 105.917 174.567C106.109 174.759 106.205 175.004 106.205 175.303V175.623C106.205 175.922 106.109 176.167 105.917 176.359C105.725 176.551 105.421 176.647 105.005 176.647ZM103.981 177.863H106.029V186.215H103.981V177.863ZM108.403 186.215V177.863H110.451V179.255H110.531C110.701 178.807 110.968 178.434 111.331 178.135C111.704 177.826 112.216 177.671 112.867 177.671C113.731 177.671 114.392 177.954 114.851 178.519C115.309 179.084 115.539 179.89 115.539 180.935V186.215H113.491V181.143C113.491 180.546 113.384 180.098 113.171 179.799C112.957 179.5 112.605 179.351 112.115 179.351C111.901 179.351 111.693 179.383 111.491 179.447C111.299 179.5 111.123 179.586 110.963 179.703C110.813 179.81 110.691 179.948 110.595 180.119C110.499 180.279 110.451 180.471 110.451 180.695V186.215H108.403ZM125.345 186.919C125.345 187.356 125.265 187.74 125.105 188.071C124.956 188.412 124.705 188.695 124.353 188.919C124.001 189.143 123.548 189.314 122.993 189.431C122.438 189.548 121.761 189.607 120.961 189.607C120.257 189.607 119.66 189.559 119.169 189.463C118.678 189.378 118.273 189.25 117.953 189.079C117.644 188.919 117.42 188.716 117.281 188.471C117.142 188.226 117.073 187.948 117.073 187.639C117.073 187.17 117.201 186.802 117.457 186.535C117.724 186.279 118.092 186.114 118.561 186.039V185.863C118.22 185.778 117.953 185.612 117.761 185.367C117.58 185.111 117.489 184.812 117.489 184.471C117.489 184.258 117.532 184.071 117.617 183.911C117.702 183.74 117.814 183.596 117.953 183.479C118.102 183.362 118.268 183.266 118.449 183.191C118.63 183.106 118.822 183.042 119.025 182.999V182.935C118.513 182.7 118.129 182.375 117.873 181.959C117.628 181.543 117.505 181.058 117.505 180.503C117.505 179.65 117.798 178.967 118.385 178.455C118.972 177.932 119.83 177.671 120.961 177.671C121.217 177.671 121.468 177.687 121.713 177.719C121.969 177.751 122.204 177.804 122.417 177.879V177.607C122.417 176.796 122.812 176.391 123.601 176.391H124.897V177.959H123.121V178.183C123.558 178.428 123.884 178.748 124.097 179.143C124.31 179.538 124.417 179.991 124.417 180.503C124.417 181.346 124.124 182.023 123.537 182.535C122.961 183.047 122.102 183.303 120.961 183.303C120.47 183.303 120.044 183.255 119.681 183.159C119.521 183.234 119.382 183.335 119.265 183.463C119.148 183.58 119.089 183.73 119.089 183.911C119.089 184.327 119.452 184.535 120.177 184.535H122.417C123.441 184.535 124.182 184.748 124.641 185.175C125.11 185.591 125.345 186.172 125.345 186.919ZM123.425 187.159C123.425 186.892 123.318 186.684 123.105 186.535C122.892 186.386 122.524 186.311 122.001 186.311H119.153C118.865 186.524 118.721 186.812 118.721 187.175C118.721 187.495 118.854 187.746 119.121 187.927C119.388 188.108 119.841 188.199 120.481 188.199H121.505C122.177 188.199 122.662 188.114 122.961 187.943C123.27 187.772 123.425 187.511 123.425 187.159ZM120.961 181.911C121.964 181.911 122.465 181.484 122.465 180.631V180.359C122.465 179.506 121.964 179.079 120.961 179.079C119.958 179.079 119.457 179.506 119.457 180.359V180.631C119.457 181.484 119.958 181.911 120.961 181.911ZM133.909 186.407C132.949 186.407 132.133 186.236 131.461 185.895C130.8 185.554 130.229 185.106 129.749 184.551L131.173 183.175C131.557 183.623 131.984 183.964 132.453 184.199C132.933 184.434 133.461 184.551 134.037 184.551C134.688 184.551 135.178 184.412 135.509 184.135C135.84 183.847 136.005 183.463 136.005 182.983C136.005 182.61 135.898 182.306 135.685 182.071C135.472 181.836 135.072 181.666 134.485 181.559L133.429 181.399C131.2 181.047 130.085 179.964 130.085 178.151C130.085 177.65 130.176 177.196 130.357 176.791C130.549 176.386 130.821 176.039 131.173 175.751C131.525 175.463 131.946 175.244 132.437 175.095C132.938 174.935 133.504 174.855 134.133 174.855C134.976 174.855 135.712 174.994 136.341 175.271C136.97 175.548 137.509 175.959 137.957 176.503L136.517 177.863C136.24 177.522 135.904 177.244 135.509 177.031C135.114 176.818 134.618 176.711 134.021 176.711C133.413 176.711 132.954 176.828 132.645 177.063C132.346 177.287 132.197 177.607 132.197 178.023C132.197 178.45 132.32 178.764 132.565 178.967C132.81 179.17 133.205 179.319 133.749 179.415L134.789 179.607C135.92 179.81 136.752 180.172 137.285 180.695C137.829 181.207 138.101 181.927 138.101 182.855C138.101 183.388 138.005 183.874 137.813 184.311C137.632 184.738 137.36 185.111 136.997 185.431C136.645 185.74 136.208 185.98 135.685 186.151C135.173 186.322 134.581 186.407 133.909 186.407ZM143.386 186.407C142.768 186.407 142.218 186.306 141.738 186.103C141.258 185.9 140.853 185.607 140.522 185.223C140.202 184.839 139.957 184.38 139.786 183.847C139.616 183.303 139.53 182.695 139.53 182.023C139.53 181.351 139.616 180.748 139.786 180.215C139.957 179.682 140.202 179.228 140.522 178.855C140.853 178.471 141.258 178.178 141.738 177.975C142.218 177.772 142.768 177.671 143.386 177.671C144.229 177.671 144.922 177.858 145.466 178.231C146.021 178.604 146.421 179.122 146.666 179.783L144.986 180.535C144.89 180.183 144.709 179.895 144.442 179.671C144.186 179.436 143.834 179.319 143.386 179.319C142.81 179.319 142.378 179.5 142.09 179.863C141.813 180.226 141.674 180.7 141.674 181.287V182.807C141.674 183.394 141.813 183.868 142.09 184.231C142.378 184.583 142.81 184.759 143.386 184.759C143.877 184.759 144.256 184.636 144.522 184.391C144.789 184.135 144.997 183.82 145.146 183.447L146.714 184.199C146.437 184.935 146.016 185.49 145.45 185.863C144.885 186.226 144.197 186.407 143.386 186.407ZM148.293 186.215V177.863H150.341V179.591H150.421C150.475 179.367 150.555 179.154 150.661 178.951C150.779 178.738 150.928 178.551 151.109 178.391C151.291 178.231 151.504 178.103 151.749 178.007C152.005 177.911 152.299 177.863 152.629 177.863H153.077V179.799H152.437C151.744 179.799 151.221 179.9 150.869 180.103C150.517 180.306 150.341 180.636 150.341 181.095V186.215H148.293ZM157.873 186.407C157.254 186.407 156.699 186.306 156.209 186.103C155.729 185.89 155.318 185.596 154.977 185.223C154.646 184.839 154.39 184.38 154.209 183.847C154.027 183.303 153.937 182.695 153.937 182.023C153.937 181.362 154.022 180.764 154.193 180.231C154.374 179.698 154.63 179.244 154.961 178.871C155.291 178.487 155.697 178.194 156.177 177.991C156.657 177.778 157.201 177.671 157.809 177.671C158.459 177.671 159.025 177.783 159.505 178.007C159.985 178.231 160.379 178.535 160.689 178.919C160.998 179.303 161.227 179.751 161.377 180.263C161.537 180.764 161.617 181.303 161.617 181.879V182.551H156.065V182.759C156.065 183.367 156.235 183.858 156.577 184.231C156.918 184.594 157.425 184.775 158.097 184.775C158.609 184.775 159.025 184.668 159.345 184.455C159.675 184.242 159.969 183.97 160.225 183.639L161.329 184.871C160.987 185.351 160.518 185.73 159.921 186.007C159.334 186.274 158.651 186.407 157.873 186.407ZM157.841 179.207C157.297 179.207 156.865 179.388 156.545 179.751C156.225 180.114 156.065 180.583 156.065 181.159V181.287H159.489V181.143C159.489 180.567 159.345 180.103 159.057 179.751C158.779 179.388 158.374 179.207 157.841 179.207ZM166.794 186.407C166.176 186.407 165.621 186.306 165.13 186.103C164.65 185.89 164.24 185.596 163.898 185.223C163.568 184.839 163.312 184.38 163.13 183.847C162.949 183.303 162.858 182.695 162.858 182.023C162.858 181.362 162.944 180.764 163.114 180.231C163.296 179.698 163.552 179.244 163.882 178.871C164.213 178.487 164.618 178.194 165.098 177.991C165.578 177.778 166.122 177.671 166.73 177.671C167.381 177.671 167.946 177.783 168.426 178.007C168.906 178.231 169.301 178.535 169.61 178.919C169.92 179.303 170.149 179.751 170.298 180.263C170.458 180.764 170.538 181.303 170.538 181.879V182.551H164.986V182.759C164.986 183.367 165.157 183.858 165.498 184.231C165.84 184.594 166.346 184.775 167.018 184.775C167.53 184.775 167.946 184.668 168.266 184.455C168.597 184.242 168.89 183.97 169.146 183.639L170.25 184.871C169.909 185.351 169.44 185.73 168.842 186.007C168.256 186.274 167.573 186.407 166.794 186.407ZM166.762 179.207C166.218 179.207 165.786 179.388 165.466 179.751C165.146 180.114 164.986 180.583 164.986 181.159V181.287H168.41V181.143C168.41 180.567 168.266 180.103 167.978 179.751C167.701 179.388 167.296 179.207 166.762 179.207ZM172.34 186.215V177.863H174.388V179.255H174.468C174.639 178.807 174.906 178.434 175.268 178.135C175.642 177.826 176.154 177.671 176.804 177.671C177.668 177.671 178.33 177.954 178.788 178.519C179.247 179.084 179.476 179.89 179.476 180.935V186.215H177.428V181.143C177.428 180.546 177.322 180.098 177.108 179.799C176.895 179.5 176.543 179.351 176.052 179.351C175.839 179.351 175.631 179.383 175.428 179.447C175.236 179.5 175.06 179.586 174.9 179.703C174.751 179.81 174.628 179.948 174.532 180.119C174.436 180.279 174.388 180.471 174.388 180.695V186.215H172.34Z" fill="#999999"/>
<ellipse cx="25" cy="181.21" rx="25" ry="24.9785" fill="#999999" fill-opacity="0.18"/>
<path d="M18.5025 172.211L16 190.206M31.5155 172.211L34 190.183M25.009 172.211V175.21M25.009 186.707V190.206M25.009 179.209V182.708" stroke="#999999" stroke-width="1.5" stroke-linecap="round" stroke-linejoin="round"/>
<rect x="205" y="0.481445" width="6" height="205.823" rx="3" fill="#DEDDDD"/>
<rect x="205" y="0.481445" width="6" height="49.957" rx="3" fill="#37BD6B"/>
</svg>
